<mxfile host="Electron" modified="2024-02-29T14:13:51.854Z" agent="Mozilla/5.0 (X11; Linux x86_64) AppleWebKit/537.36 (KHTML, like Gecko) draw.io/22.1.21 Chrome/120.0.6099.109 Electron/28.1.0 Safari/537.36" etag="SKMzHvk5qLP3RJcFheC2" version="22.1.21" type="device">
  <diagram name="StrÃ¡nka-1" id="rCuR_HKEFEW9UkEbS0y6">
    <mxGraphModel dx="517" dy="854" grid="1" gridSize="10" guides="1" tooltips="1" connect="1" arrows="1" fold="1" page="1" pageScale="1" pageWidth="1654" pageHeight="2336" math="1" shadow="0">
      <root>
        <mxCell id="0" />
        <mxCell id="1" parent="0" />
        <mxCell id="lqmiK09d9e8ZmLnn4gDf-27" value="$$\vec{v}$$" style="text;html=1;strokeColor=none;fillColor=none;align=center;verticalAlign=middle;whiteSpace=wrap;rounded=0;" vertex="1" parent="1">
          <mxGeometry x="398" y="527" width="60" height="30" as="geometry" />
        </mxCell>
        <mxCell id="lqmiK09d9e8ZmLnn4gDf-26" value="$$\vec{v}$$" style="text;html=1;strokeColor=none;fillColor=none;align=center;verticalAlign=middle;whiteSpace=wrap;rounded=0;" vertex="1" parent="1">
          <mxGeometry x="313" y="454" width="60" height="30" as="geometry" />
        </mxCell>
        <mxCell id="lqmiK09d9e8ZmLnn4gDf-16" value="\(\text{woman}\)" style="text;html=1;strokeColor=none;fillColor=none;align=center;verticalAlign=middle;whiteSpace=wrap;rounded=0;" vertex="1" parent="1">
          <mxGeometry x="368" y="537" width="60" height="30" as="geometry" />
        </mxCell>
        <mxCell id="lqmiK09d9e8ZmLnn4gDf-1" value="" style="endArrow=classic;html=1;rounded=0;strokeWidth=2;" edge="1" parent="1">
          <mxGeometry width="50" height="50" relative="1" as="geometry">
            <mxPoint x="240" y="600" as="sourcePoint" />
            <mxPoint x="480" y="600" as="targetPoint" />
          </mxGeometry>
        </mxCell>
        <mxCell id="lqmiK09d9e8ZmLnn4gDf-2" value="" style="endArrow=classic;html=1;rounded=0;strokeWidth=2;" edge="1" parent="1">
          <mxGeometry width="50" height="50" relative="1" as="geometry">
            <mxPoint x="240" y="600" as="sourcePoint" />
            <mxPoint x="240" y="400" as="targetPoint" />
          </mxGeometry>
        </mxCell>
        <mxCell id="lqmiK09d9e8ZmLnn4gDf-3" value="\(d_{\text{model 1}}\)" style="text;html=1;strokeColor=none;fillColor=none;align=center;verticalAlign=middle;whiteSpace=wrap;rounded=0;" vertex="1" parent="1">
          <mxGeometry x="428" y="600" width="60" height="30" as="geometry" />
        </mxCell>
        <mxCell id="lqmiK09d9e8ZmLnn4gDf-4" value="\(d_{\text{model 2}}\)" style="text;html=1;strokeColor=none;fillColor=none;align=center;verticalAlign=middle;whiteSpace=wrap;rounded=0;" vertex="1" parent="1">
          <mxGeometry x="180" y="402" width="60" height="30" as="geometry" />
        </mxCell>
        <mxCell id="lqmiK09d9e8ZmLnn4gDf-6" value="" style="shape=ellipse;html=1;fillColor=strokeColor;fontSize=18;fontColor=#ffffff;strokeColor=#58BD00;" vertex="1" parent="1">
          <mxGeometry x="313" y="462" width="10" height="10" as="geometry" />
        </mxCell>
        <mxCell id="lqmiK09d9e8ZmLnn4gDf-7" value="" style="shape=ellipse;html=1;fillColor=strokeColor;fontSize=18;fontColor=#ffffff;strokeColor=#58BD00;" vertex="1" parent="1">
          <mxGeometry x="353" y="482" width="10" height="10" as="geometry" />
        </mxCell>
        <mxCell id="lqmiK09d9e8ZmLnn4gDf-8" value="\(\text{man}\)&lt;br&gt;" style="text;html=1;strokeColor=none;fillColor=none;align=center;verticalAlign=middle;whiteSpace=wrap;rounded=0;" vertex="1" parent="1">
          <mxGeometry x="285" y="462" width="60" height="30" as="geometry" />
        </mxCell>
        <mxCell id="lqmiK09d9e8ZmLnn4gDf-9" value="\(\text{king}\)" style="text;html=1;strokeColor=none;fillColor=none;align=center;verticalAlign=middle;whiteSpace=wrap;rounded=0;" vertex="1" parent="1">
          <mxGeometry x="320" y="484" width="60" height="30" as="geometry" />
        </mxCell>
        <mxCell id="lqmiK09d9e8ZmLnn4gDf-10" value="" style="shape=ellipse;html=1;fillColor=strokeColor;fontSize=18;fontColor=#ffffff;strokeColor=#58BD00;" vertex="1" parent="1">
          <mxGeometry x="290" y="432" width="10" height="10" as="geometry" />
        </mxCell>
        <mxCell id="lqmiK09d9e8ZmLnn4gDf-11" value="\(\text{boy}\)" style="text;html=1;strokeColor=none;fillColor=none;align=center;verticalAlign=middle;whiteSpace=wrap;rounded=0;" vertex="1" parent="1">
          <mxGeometry x="265" y="432" width="60" height="30" as="geometry" />
        </mxCell>
        <mxCell id="lqmiK09d9e8ZmLnn4gDf-12" value="" style="shape=ellipse;html=1;fillColor=strokeColor;fontSize=18;fontColor=#ffffff;strokeColor=#58BD00;" vertex="1" parent="1">
          <mxGeometry x="270" y="474" width="10" height="10" as="geometry" />
        </mxCell>
        <mxCell id="lqmiK09d9e8ZmLnn4gDf-13" value="\(\text{actor}\)" style="text;html=1;strokeColor=none;fillColor=none;align=center;verticalAlign=middle;whiteSpace=wrap;rounded=0;" vertex="1" parent="1">
          <mxGeometry x="253" y="475" width="60" height="30" as="geometry" />
        </mxCell>
        <mxCell id="lqmiK09d9e8ZmLnn4gDf-14" value="" style="shape=ellipse;html=1;fillColor=strokeColor;fontSize=18;fontColor=#ffffff;strokeColor=#032DFF;" vertex="1" parent="1">
          <mxGeometry x="398" y="535" width="10" height="10" as="geometry" />
        </mxCell>
        <mxCell id="lqmiK09d9e8ZmLnn4gDf-17" value="\(\text{queen}\)" style="text;html=1;strokeColor=none;fillColor=none;align=center;verticalAlign=middle;whiteSpace=wrap;rounded=0;" vertex="1" parent="1">
          <mxGeometry x="410" y="557" width="60" height="30" as="geometry" />
        </mxCell>
        <mxCell id="lqmiK09d9e8ZmLnn4gDf-18" value="" style="shape=ellipse;html=1;fillColor=strokeColor;fontSize=18;fontColor=#ffffff;strokeColor=#032DFF;" vertex="1" parent="1">
          <mxGeometry x="380" y="505" width="10" height="10" as="geometry" />
        </mxCell>
        <mxCell id="lqmiK09d9e8ZmLnn4gDf-19" value="\(\text{girl}\)" style="text;html=1;strokeColor=none;fillColor=none;align=center;verticalAlign=middle;whiteSpace=wrap;rounded=0;" vertex="1" parent="1">
          <mxGeometry x="355" y="506" width="60" height="30" as="geometry" />
        </mxCell>
        <mxCell id="lqmiK09d9e8ZmLnn4gDf-20" value="" style="shape=ellipse;html=1;fillColor=strokeColor;fontSize=18;fontColor=#ffffff;strokeColor=#032DFF;" vertex="1" parent="1">
          <mxGeometry x="360" y="547" width="10" height="10" as="geometry" />
        </mxCell>
        <mxCell id="lqmiK09d9e8ZmLnn4gDf-21" value="\(\text{actress}\)" style="text;html=1;strokeColor=none;fillColor=none;align=center;verticalAlign=middle;whiteSpace=wrap;rounded=0;" vertex="1" parent="1">
          <mxGeometry x="320" y="547" width="60" height="30" as="geometry" />
        </mxCell>
        <mxCell id="lqmiK09d9e8ZmLnn4gDf-22" value="" style="endArrow=none;html=1;rounded=0;dashed=1;dashPattern=1 1;strokeWidth=3;" edge="1" parent="1" source="lqmiK09d9e8ZmLnn4gDf-14" target="lqmiK09d9e8ZmLnn4gDf-15">
          <mxGeometry width="50" height="50" relative="1" as="geometry">
            <mxPoint x="405" y="541" as="sourcePoint" />
            <mxPoint x="405" y="501" as="targetPoint" />
          </mxGeometry>
        </mxCell>
        <mxCell id="lqmiK09d9e8ZmLnn4gDf-15" value="" style="shape=ellipse;html=1;fillColor=strokeColor;fontSize=18;fontColor=#ffffff;strokeColor=#032DFF;" vertex="1" parent="1">
          <mxGeometry x="438" y="555" width="10" height="10" as="geometry" />
        </mxCell>
        <mxCell id="lqmiK09d9e8ZmLnn4gDf-23" value="" style="endArrow=none;html=1;rounded=0;strokeWidth=3;dashed=1;dashPattern=1 1;" edge="1" parent="1">
          <mxGeometry width="50" height="50" relative="1" as="geometry">
            <mxPoint x="323" y="469.5" as="sourcePoint" />
            <mxPoint x="353" y="484.5" as="targetPoint" />
          </mxGeometry>
        </mxCell>
      </root>
    </mxGraphModel>
  </diagram>
</mxfile>
